
<svg xmlns="http://www.w3.org/2000/svg" xmlns:xlink="http://www.w3.org/1999/xlink" viewBox="0 0 96 96" width="96" height="96" fill="none">
  <g opacity="100%">
    <rect x="0" y="0" width="96" height="96" fill="#1d1d1d" rx="6"></rect>
    <svg xmlns="http://www.w3.org/2000/svg" height="66" width="66" viewBox="0 0 24 24" fill="#fff" x="15" y="15">
      <path d="M0 0h24v24H0V0z" fill="none"></path>
      <path d="M21 3H3c-1.1 0-2 .85-2 1.95v14c0 1.1.9 2.05 2 2.05h18c1.1 0 2-.95 2-2.05v-14C23 3.85 22.1 3 21 3zm0 16H3V5h18v14zM9 8h2v8H9zm4 0h2v8h-2z"></path>
    </svg>
  </g>
  <defs></defs>
</svg>